<svg width="1600" height="1600" viewBox="0 0 1600 1600" fill="none" xmlns="http://www.w3.org/2000/svg">
<rect width="1600" height="1600" rx="300" fill="#5EFF00"/>
<path d="M249.469 1120V491.421H364.409L686.78 914.365V491.421H799.925V1120H693.964L362.613 683.587V1120H249.469ZM1129.14 1128.98C989.052 1128.98 881.296 1023.02 881.296 887.426C881.296 752.73 985.461 647.668 1118.36 647.668C1249.46 647.668 1347.34 753.628 1347.34 895.508V925.141H996.236C1011.5 987.998 1065.38 1032.9 1134.52 1032.9C1176.73 1032.9 1215.34 1018.53 1240.48 994.284L1315.02 1063.43C1258.44 1108.33 1201.87 1128.98 1129.14 1128.98ZM995.338 843.425H1235.1C1221.63 784.159 1174.03 741.955 1115.67 741.955C1055.5 741.955 1009.71 781.465 995.338 843.425Z" fill="black"/>
</svg>
