<svg width="2847" height="851" viewBox="0 0 2847 851" fill="none" xmlns="http://www.w3.org/2000/svg">
<path d="M0.266006 658V29.4211H115.206L437.577 452.365V29.4211H550.722V658H444.761L113.41 221.587V658H0.266006ZM879.933 666.98C739.849 666.98 632.093 561.019 632.093 425.426C632.093 290.73 736.257 185.668 869.157 185.668C1000.26 185.668 1098.14 291.628 1098.14 433.508V463.141H747.033C762.299 525.998 816.177 570.897 885.32 570.897C927.525 570.897 966.138 556.529 991.281 532.284L1065.81 601.428C1009.24 646.326 952.668 666.98 879.933 666.98ZM746.135 381.425H985.893C972.424 322.159 924.831 279.955 866.463 279.955C806.299 279.955 760.503 319.465 746.135 381.425ZM1085.05 658L1263.74 420.936L1090.44 192.852H1223.34L1330.19 337.425L1437.05 192.852H1564.56L1393.05 419.14L1575.34 658H1442.44L1327.5 503.549L1212.56 658H1085.05ZM1674.52 131.79C1637.7 131.79 1608.07 102.157 1608.07 66.2379C1608.07 29.4211 1637.7 0.686068 1674.52 0.686068C1710.44 0.686068 1740.07 29.4211 1740.07 66.2379C1740.07 102.157 1710.44 131.79 1674.52 131.79ZM1617.05 658V192.852H1731.09V658H1617.05ZM2056.88 850.166C1985.94 850.166 1918.59 834.9 1864.71 807.063L1905.12 718.164C1957.2 744.205 2004.79 755.879 2054.18 755.879C2128.71 755.879 2168.22 722.654 2168.22 658V616.693C2130.51 645.428 2085.61 660.694 2037.12 660.694C1906.02 660.694 1802.75 556.529 1802.75 422.732C1802.75 289.832 1906.92 185.668 2040.71 185.668C2087.41 185.668 2132.31 200.035 2169.12 226.076V192.852H2282.27V658.898C2282.27 781.92 2202.35 850.166 2056.88 850.166ZM2054.18 563.713C2100.88 563.713 2140.39 547.55 2168.22 517.917V329.343C2140.39 300.608 2099.98 283.547 2055.08 283.547C1975.16 283.547 1914.1 343.711 1914.1 422.732C1914.1 502.651 1975.16 563.713 2054.18 563.713ZM2599.78 666.98C2461.5 666.98 2353.74 561.019 2353.74 426.324C2353.74 290.73 2461.5 184.77 2599.78 184.77C2738.07 184.77 2846.73 290.73 2846.73 426.324C2846.73 561.019 2738.07 666.98 2599.78 666.98ZM2599.78 568.203C2676.11 568.203 2735.38 505.345 2735.38 426.324C2735.38 345.506 2675.21 283.547 2599.78 283.547C2524.35 283.547 2465.09 345.506 2465.09 426.324C2465.09 505.345 2524.35 568.203 2599.78 568.203Z" fill="black"/>
</svg>
