<svg width="4800" height="3500" viewBox="0 0 4800 3500" fill="none" xmlns="http://www.w3.org/2000/svg">
<rect width="4800" height="3500" fill="black"/>
<path d="M1741.09 2544V983.923H2456.5C2768.52 983.923 2980.24 1155.53 2980.24 1407.37C2980.24 1550.01 2902.24 1665.9 2777.43 1739.45C2935.67 1806.31 3033.73 1935.57 3033.73 2093.81C3033.73 2363.48 2817.55 2544 2489.93 2544H1741.09ZM2039.74 1628.01H2438.67C2587.99 1628.01 2681.6 1552.24 2681.6 1429.66C2681.6 1309.31 2587.99 1231.31 2438.67 1231.31H2039.74V1628.01ZM2039.74 2296.62H2467.64C2628.11 2296.62 2732.86 2209.7 2732.86 2078.21C2732.86 1946.71 2628.11 1862.02 2467.64 1862.02H2039.74V2296.62Z" fill="#2E2E2E"/>
</svg>
