<svg width="80" height="80" viewBox="0 0 80 80" fill="none" xmlns="http://www.w3.org/2000/svg">
<g clip-path="url(#clip0_110_115)">
<path fill-rule="evenodd" clip-rule="evenodd" d="M56.4118 11.6577C57.7228 12.9659 59.2084 14.4475 59.2084 14.4475C59.2084 14.4475 65.3255 14.9025 65.6141 14.9275C65.9051 14.9525 66.2559 15.175 66.3106 15.5775C66.3654 15.98 75 74.6525 75 74.6525L53.8118 79.2583L56.4118 11.6577ZM53.1615 9.43532C52.9992 9.45635 52.8584 9.4884 52.7604 9.51752C52.7082 9.53252 51.8325 9.80502 50.3822 10.255C48.9618 6.15002 46.4567 2.37752 42.0511 2.37752C41.9292 2.37752 41.8023 2.38253 41.6779 2.39003C40.4241 0.725035 38.8718 0 37.531 0C27.2645 0 22.3588 12.9 20.8215 19.4525C16.8313 20.695 13.9978 21.5775 13.6371 21.6925C11.4082 22.395 11.3385 22.465 11.0475 24.5725C10.8261 26.17 5 71.4525 5 71.4525L50.3996 80L50.4479 79.9895L53.1615 9.43532ZM41.3421 12.62C41.3421 12.7775 41.3396 12.9225 41.3396 13.0675C38.8395 13.845 36.1255 14.69 33.404 15.5375C34.9314 9.61252 37.7947 6.74996 40.2998 5.66996C40.9291 7.25996 41.3421 9.54254 41.3421 12.62ZM37.2474 2.76754C37.6927 2.76754 38.138 2.92003 38.5659 3.21503C35.2747 4.77003 31.7497 8.68999 30.2596 16.515C28.0829 17.1925 25.956 17.855 23.9882 18.4675C25.7321 12.4975 29.874 2.76754 37.2474 2.76754ZM39.0161 37.655C39.0161 37.655 36.3593 36.23 33.103 36.23C28.3267 36.23 28.0854 39.2425 28.0854 40C28.0854 44.1425 38.8271 45.73 38.8271 55.43C38.8271 63.06 34.011 67.975 27.5157 67.975C19.7219 67.975 15.7367 63.1 15.7367 63.1L17.8238 56.1725C17.8238 56.1725 21.921 59.7075 25.3788 59.7075C27.6351 59.7075 28.5556 57.92 28.5556 56.615C28.5556 51.2125 19.7418 50.97 19.7418 42.0925C19.7418 34.6225 25.0778 27.3925 35.8494 27.3925C39.9988 27.3925 42.0511 28.5875 42.0511 28.5875L39.0161 37.655ZM44.0312 12.23C44.0312 11.9575 44.0337 11.69 44.0337 11.3975C44.0337 8.8475 43.6805 6.7925 43.1158 5.165C45.387 5.45 46.8995 8.04745 47.8722 11.035C46.7328 11.39 45.4368 11.7925 44.0312 12.23Z" fill="#81BF37"/>
</g>
<defs>
<clipPath id="clip0_110_115">
<rect width="80" height="80" fill="white"/>
</clipPath>
</defs>
</svg>
